<?xml version="1.0" encoding="utf-8"?>
<!-- Generator: Adobe Illustrator 15.1.0, SVG Export Plug-In . SVG Version: 6.00 Build 0)  -->
<!DOCTYPE svg PUBLIC "-//W3C//DTD SVG 1.1//EN" "http://www.w3.org/Graphics/SVG/1.1/DTD/svg11.dtd">
<svg version="1.1" id="Camada_1" xmlns="http://www.w3.org/2000/svg" xmlns:xlink="http://www.w3.org/1999/xlink" x="0px" y="0px"
	 width="449.45px" height="546.153px" viewBox="0 0 449.45 546.153" enable-background="new 0 0 449.45 546.153"
	 xml:space="preserve">
<path stroke="#000000" stroke-miterlimit="10" d="M449.45,261.626c0,6.627-5.373,12-12,12H18.593c-6.627,0-12-5.373-12-12V12
	c0-6.627,5.373-12,12-12H437.45c6.627,0,12,5.373,12,12V261.626z"/>
<rect x="38.461" y="23.616" fill="#F7F7F8" stroke="#000000" stroke-miterlimit="10" width="379.121" height="219.78"/>
<ellipse fill="#F7F7F8" stroke="#000000" stroke-miterlimit="10" cx="226.166" cy="260.497" rx="12.021" ry="8.351"/>
<rect x="176.923" y="273.626" stroke="#000000" stroke-miterlimit="10" width="96.703" height="59.341"/>
<path stroke="#000000" stroke-miterlimit="10" d="M401.099,352.835c0,6.627-5.373,12-12,12H49.363c-6.627,0-12-5.373-12-12v-7.868
	c0-6.628,5.373-12,12-12h339.736c6.627,0,12,5.372,12,12V352.835z"/>
<rect y="430.77" stroke="#000000" stroke-miterlimit="10" width="449.45" height="115.384"/>
<rect x="26.374" y="447.253" fill="#F7F7F8" stroke="#000000" stroke-miterlimit="10" width="395.605" height="80.22"/>
<rect x="37.363" y="458.241" stroke="#000000" stroke-miterlimit="10" width="17.583" height="14.286"/>
<rect x="37.363" y="481.319" stroke="#000000" stroke-miterlimit="10" width="17.583" height="14.285"/>
<rect x="37.363" y="503.847" stroke="#000000" stroke-miterlimit="10" width="17.583" height="14.285"/>
<rect x="69.23" y="458.241" stroke="#000000" stroke-miterlimit="10" width="17.583" height="14.285"/>
<rect x="69.23" y="481.319" stroke="#000000" stroke-miterlimit="10" width="17.583" height="14.285"/>
<rect x="69.23" y="503.847" stroke="#000000" stroke-miterlimit="10" width="17.583" height="14.285"/>
<rect x="101.099" y="458.241" stroke="#000000" stroke-miterlimit="10" width="17.583" height="14.285"/>
<rect x="131.868" y="458.241" stroke="#000000" stroke-miterlimit="10" width="17.583" height="14.285"/>
<rect x="159.341" y="458.241" stroke="#000000" stroke-miterlimit="10" width="17.583" height="14.285"/>
<rect x="187.088" y="458.241" stroke="#000000" stroke-miterlimit="10" width="17.583" height="14.285"/>
<rect x="219.231" y="458.241" stroke="#000000" stroke-miterlimit="10" width="17.582" height="14.285"/>
<rect x="249.45" y="458.241" stroke="#000000" stroke-miterlimit="10" width="17.583" height="14.285"/>
<rect x="279.396" y="458.241" stroke="#000000" stroke-miterlimit="10" width="17.583" height="14.285"/>
<rect x="307.692" y="458.241" stroke="#000000" stroke-miterlimit="10" width="17.582" height="14.285"/>
<rect x="361.537" y="458.241" stroke="#000000" stroke-miterlimit="10" width="48.354" height="59.891"/>
<rect x="332.966" y="458.241" stroke="#000000" stroke-miterlimit="10" width="17.583" height="14.285"/>
<rect x="101.099" y="503.847" stroke="#000000" stroke-miterlimit="10" width="249.45" height="14.285"/>
<rect x="101.099" y="481.319" stroke="#000000" stroke-miterlimit="10" width="17.583" height="14.285"/>
<rect x="131.868" y="481.319" stroke="#000000" stroke-miterlimit="10" width="17.583" height="14.285"/>
<rect x="159.341" y="481.319" stroke="#000000" stroke-miterlimit="10" width="17.583" height="14.285"/>
<rect x="187.088" y="479.276" stroke="#000000" stroke-miterlimit="10" width="17.583" height="14.285"/>
<rect x="219.231" y="481.319" stroke="#000000" stroke-miterlimit="10" width="17.582" height="14.285"/>
<rect x="249.45" y="479.276" stroke="#000000" stroke-miterlimit="10" width="17.583" height="14.285"/>
<rect x="279.396" y="479.276" stroke="#000000" stroke-miterlimit="10" width="17.583" height="14.285"/>
<rect x="307.692" y="479.276" stroke="#000000" stroke-miterlimit="10" width="17.582" height="14.285"/>
<rect x="332.966" y="481.319" stroke="#000000" stroke-miterlimit="10" width="17.583" height="14.285"/>
<ellipse fill="#009BDB" stroke="#000000" stroke-miterlimit="10" cx="54.946" cy="52.747" rx="15.934" ry="14.286"/>
<ellipse fill="#70A83B" stroke="#000000" stroke-miterlimit="10" cx="54.945" cy="128.543" rx="15.934" ry="14.285"/>
<ellipse fill="#FEEE00" stroke="#000000" stroke-miterlimit="10" cx="54.945" cy="203.296" rx="15.934" ry="14.285"/>
<rect x="279.396" y="114.286" stroke="#000000" stroke-miterlimit="10" width="137.087" height="22.527"/>
<ellipse stroke="#000000" stroke-miterlimit="10" cx="268.408" cy="123.214" rx="19.094" ry="18.543"/>
<ellipse fill="#F7F7F8" stroke="#000000" stroke-miterlimit="10" cx="268.407" cy="123.213" rx="8.802" ry="7.958"/>
<rect x="325.479" y="119.31" transform="matrix(-0.7622 -0.6474 0.6474 -0.7622 485.6803 490.6387)" stroke="#000000" stroke-miterlimit="10" width="14.975" height="73.589"/>
<rect x="276.913" y="150.927" transform="matrix(0.0038 -1 1 0.0038 101.2636 465.1219)" stroke="#000000" stroke-miterlimit="10" width="14.309" height="61.624"/>
<ellipse stroke="#000000" stroke-miterlimit="10" cx="240.502" cy="181.796" rx="19.095" ry="18.543"/>
<ellipse fill="#F7F7F8" stroke="#000000" stroke-miterlimit="10" cx="240.502" cy="181.795" rx="8.802" ry="7.958"/>
<rect x="356.008" y="56.842" transform="matrix(0.6005 -0.7996 0.7996 0.6005 67.0995 329.9018)" stroke="#000000" stroke-miterlimit="10" width="15.374" height="81.919"/>
<rect x="258.38" y="67.033" stroke="#000000" stroke-miterlimit="10" width="77.198" height="19.78"/>
<ellipse stroke="#000000" stroke-miterlimit="10" cx="249.451" cy="76.923" rx="19.094" ry="18.543"/>
<ellipse fill="#F7F7F8" stroke="#000000" stroke-miterlimit="10" cx="249.45" cy="76.922" rx="8.803" ry="7.958"/>
<ellipse fill="#76AADB" stroke="#000000" stroke-miterlimit="10" cx="150.788" cy="132.027" rx="74.344" ry="79.281"/>
<rect x="95.604" y="86.813" stroke="#000000" stroke-miterlimit="10" width="109.066" height="76.439"/>
<rect x="102.747" y="95.881" fill="#FFFFFF" stroke="#000000" stroke-miterlimit="10" width="94.781" height="58.303"/>
<rect x="140.659" y="163.252" stroke="#000000" stroke-miterlimit="10" width="18.682" height="18.486"/>
<rect x="109.89" y="181.796" stroke="#000000" stroke-miterlimit="10" width="77.199" height="7.957"/>
<rect x="122.46" y="128.767" transform="matrix(0.8455 -0.534 0.534 0.8455 -48.4037 98.7192)" fill="#76AADB" stroke="#76AADB" stroke-miterlimit="10" width="47.879" height="8.482"/>
<ellipse transform="matrix(-0.9215 0.3884 -0.3884 -0.9215 372.8736 154.7151)" fill="#76AADB" stroke="#76AADB" stroke-miterlimit="10" cx="170.8" cy="115.044" rx="11.61" ry="11.392"/>
<rect x="167.296" y="104.037" transform="matrix(-0.8093 0.5874 -0.5874 -0.8093 384.3527 93.9708)" fill="#FFFFFF" stroke="#FFFFFF" stroke-miterlimit="10" width="19.256" height="10.669"/>
<rect x="127.118" y="128" transform="matrix(0.8231 0.5678 -0.5678 0.8231 101.409 -61.1057)" fill="#76AADB" stroke="#76AADB" stroke-miterlimit="10" width="43.361" height="8.483"/>
<ellipse transform="matrix(-0.7214 0.6925 -0.6925 -0.7214 293.0673 114.5368)" fill="#76AADB" stroke="#76AADB" stroke-miterlimit="10" cx="123.494" cy="116.22" rx="11.986" ry="10.254"/>
<rect x="108.48" y="104.038" transform="matrix(-0.7258 -0.6879 0.6879 -0.7258 125.8963 268.9251)" fill="#FFFFFF" stroke="#FFFFFF" stroke-miterlimit="10" width="16.125" height="10.669"/>
</svg>
